<?xml version="1.0" standalone="no"?>
<!DOCTYPE svg PUBLIC "-//W3C//DTD SVG 1.1//EN" "http://www.w3.org/Graphics/SVG/1.1/DTD/svg11.dtd">
<svg viewBox="0 0 1024 1024" version="1.1" xmlns="http://www.w3.org/2000/svg">
	<path
		d="M935.424 192c-53.76-53.76-124.928-82.944-200.192-82.944-75.776 0-146.944 29.696-200.192 82.944l-20.48 20.48-20.48-20.48C440.832 138.24 369.664 108.544 293.888 108.544S146.944 138.24 93.184 192c-110.08 110.592-109.568 290.304 0.512 400.896l389.632 389.632c8.704 8.704 19.968 13.312 31.744 13.312 11.776 0 23.04-4.608 31.744-13.312l389.632-389.632c110.08-111.104 109.568-290.816-1.024-400.896z m-41.984 357.376l-377.856 377.856-377.856-377.856c-86.528-86.528-87.04-227.328-1.024-314.368 41.984-41.984 97.792-65.024 157.184-65.024s115.2 23.04 157.184 65.024l63.488 63.488 63.488-63.488c41.984-41.984 97.792-65.024 157.184-65.024 59.392 0 115.2 23.04 157.184 65.024 86.016 86.528 86.528 227.328 1.024 314.368z"
		fill="#FFFFFF"></path>
</svg>